<svg id="Layer_1" data-name="Layer 1" xmlns="http://www.w3.org/2000/svg" width="192" height="48" viewBox="0 0 192 48">
  <defs>
    <style>
      .cls-1 {
        fill: #37474f;
      }

      .cls-2 {
        fill: #fff;
      }

      .cls-3 {
        fill: #ed2224;
      }

      .cls-4 {
        fill: #2452a2;
      }

      .cls-5 {
        fill: #b41a14;
      }
    </style>
  </defs>
  <title>graphic</title>
  <path class="cls-1" d="M21.55,30.62v11l-3.17,1.83v-11l-3.2,1.85V38L12,39.78,8.82,37.94V34.28L5.67,32.45v7.33l3.17,1.83L12,43.45h0l3.15-1.82V45.3L12,47.12,8.82,45.28,5.65,43.45,2.47,41.62v-11l3.18-1.83L8.84,27,12,25.12,15.2,27,12,28.79,8.84,30.62,12,32.46l3.19-1.84,3.18-1.83ZM43.83,42.49V39.72h1.89V37H43.83V27.44H40.71L34,37.39v2.33h7v2.77ZM41,37H37.21l3.59-5.3H41Zm7.3,5.46h5.32A9.22,9.22,0,0,0,57,41.89a7.27,7.27,0,0,0,2.55-1.61,6.88,6.88,0,0,0,1.62-2.49,9,9,0,0,0,.56-3.21,8.9,8.9,0,0,0-.56-3.19,7,7,0,0,0-1.62-2.5A7.29,7.29,0,0,0,57,27.31a9.44,9.44,0,0,0-3.37-.57H48.28Zm3-2.82V29.56h2.22a6.61,6.61,0,0,1,2.29.36,4.44,4.44,0,0,1,1.65,1,4.21,4.21,0,0,1,1,1.59,6.72,6.72,0,0,1,0,4.16,4.21,4.21,0,0,1-1,1.59,4.44,4.44,0,0,1-1.65,1,6.61,6.61,0,0,1-2.29.36Zm25.37,2.82h2.71V26.74H76.5v4.73L76.61,33h-.18a3.22,3.22,0,0,0-1.23-1.17,4,4,0,0,0-2.07-.48,4.62,4.62,0,0,0-2,.43A5.2,5.2,0,0,0,69.52,33a5.69,5.69,0,0,0-1.13,1.81A6.38,6.38,0,0,0,68,37.1a6.1,6.1,0,0,0,.42,2.31,5.69,5.69,0,0,0,1.13,1.81,5.39,5.39,0,0,0,1.65,1.19,4.62,4.62,0,0,0,2,.43,4,4,0,0,0,2.07-.48,3.29,3.29,0,0,0,1.23-1.17h.18Zm-4-2.53a3,3,0,0,1-.91-.62,3,3,0,0,1-.64-1,3.51,3.51,0,0,1,0-2.55,3,3,0,0,1,.64-1,3,3,0,0,1,.91-.62,2.72,2.72,0,0,1,1.09-.22,2.93,2.93,0,0,1,1.09.21,2.8,2.8,0,0,1,.91.61,3,3,0,0,1,.64,1,3.64,3.64,0,0,1,0,2.6,3,3,0,0,1-.64,1,2.77,2.77,0,0,1-.91.6,2.93,2.93,0,0,1-1.09.21A2.67,2.67,0,0,1,72.64,40Zm16.84-1.25a3.2,3.2,0,0,1-1,1.13,2.81,2.81,0,0,1-1.64.45,3.77,3.77,0,0,1-1-.14,2.69,2.69,0,0,1-1.57-1.25,3,3,0,0,1-.36-1.13H92a1,1,0,0,1,0-.24,1,1,0,0,1,0-.24V37a6.81,6.81,0,0,0-.35-2.24,5.1,5.1,0,0,0-1-1.79A4.72,4.72,0,0,0,89,31.79a5.89,5.89,0,0,0-2.31-.43,5.46,5.46,0,0,0-2.25.46,5.6,5.6,0,0,0-2.94,3.07,6,6,0,0,0-.42,2.21,6,6,0,0,0,.43,2.3,5.39,5.39,0,0,0,3,3,5.92,5.92,0,0,0,2.28.43A5.59,5.59,0,0,0,89.88,42a6,6,0,0,0,2-2.13Zm-5.43-3a2.79,2.79,0,0,1,1-1.47,2.65,2.65,0,0,1,1.63-.53,2.9,2.9,0,0,1,1.13.2,2.55,2.55,0,0,1,.79.51,2.24,2.24,0,0,1,.48.66,1.82,1.82,0,0,1,.19.64Zm16.11,6.84a4.43,4.43,0,0,0,1.45-.78,3.64,3.64,0,0,0,.93-1.13,2.83,2.83,0,0,0,.33-1.34,3,3,0,0,0-.8-2.06A4.76,4.76,0,0,0,99.63,36L98,35.6a4.54,4.54,0,0,1-1-.4.66.66,0,0,1-.38-.59.73.73,0,0,1,.46-.65,2.23,2.23,0,0,1,1.08-.25,2.61,2.61,0,0,1,1.19.29,1.87,1.87,0,0,1,.9.92l2.49-1A3.71,3.71,0,0,0,100.88,32a6.09,6.09,0,0,0-2.75-.6,6,6,0,0,0-1.73.23,4.61,4.61,0,0,0-1.4.66,3.21,3.21,0,0,0-.94,1,2.88,2.88,0,0,0-.34,1.41A2.51,2.51,0,0,0,94,35.93a3,3,0,0,0,.73.9,4.29,4.29,0,0,0,1,.62,5.16,5.16,0,0,0,1,.35l1.52.33a4.2,4.2,0,0,1,1.33.5.84.84,0,0,1,.38.71.81.81,0,0,1-.46.68,2.35,2.35,0,0,1-1.25.29,2.57,2.57,0,0,1-1.4-.41,2.82,2.82,0,0,1-1-1.24l-2.57,1.1a5.06,5.06,0,0,0,.64,1.13,4.74,4.74,0,0,0,1,1,5.4,5.4,0,0,0,1.43.69,6.28,6.28,0,0,0,1.88.26,6,6,0,0,0,1.92-.28Zm7.29-12.84a1.82,1.82,0,0,0,0-2.58,1.89,1.89,0,0,0-2-.4,1.81,1.81,0,0,0-.59.4,1.94,1.94,0,0,0-.4.58,1.92,1.92,0,0,0,0,1.45,1.94,1.94,0,0,0,.4.58,1.87,1.87,0,0,0,2.63,0Zm.13,12.77V31.71h-2.88V42.49Zm9.82,4.7A4.88,4.88,0,0,0,119.21,46a5.44,5.44,0,0,0,1.17-1.85,6.79,6.79,0,0,0,.42-2.45v-10H118v1.18h-.18a3.41,3.41,0,0,0-1.33-1.11,4.18,4.18,0,0,0-2-.41,4.66,4.66,0,0,0-1.88.39A4.87,4.87,0,0,0,111,32.87a5.93,5.93,0,0,0,0,8.06,4.91,4.91,0,0,0,1.62,1.12,4.66,4.66,0,0,0,1.88.39,4.18,4.18,0,0,0,2-.41,3.58,3.58,0,0,0,1.37-1H118v.75a3.55,3.55,0,0,1-.79,2.44,3,3,0,0,1-3.72.41,2.6,2.6,0,0,1-1-1.33l-2.75,1.1a4.13,4.13,0,0,0,.64,1.14,5.5,5.5,0,0,0,1.1,1,6.06,6.06,0,0,0,1.55.77,6.18,6.18,0,0,0,2,.3,6.43,6.43,0,0,0,2.38-.39Zm-3.24-7.49a2.65,2.65,0,0,1-.9-.57,2.86,2.86,0,0,1-.64-.93,3.45,3.45,0,0,1,0-2.53,3,3,0,0,1,.64-.94,2.68,2.68,0,0,1,.9-.58,2.76,2.76,0,0,1,2,0,2.69,2.69,0,0,1,.91.57,3,3,0,0,1,.64.94,3.45,3.45,0,0,1,0,2.53,2.86,2.86,0,0,1-.64.93,2.69,2.69,0,0,1-.91.57,3.11,3.11,0,0,1-1,.19,2.61,2.61,0,0,1-1-.14Zm11.79-8h-2.71V42.49h2.88V37.21A5,5,0,0,1,126.3,36a3.08,3.08,0,0,1,.48-1,2.5,2.5,0,0,1,.77-.68,2.06,2.06,0,0,1,1-.25,2,2,0,0,1,1.51.56,2.51,2.51,0,0,1,.52,1.73v6.18h2.88V36a6.61,6.61,0,0,0-.25-1.88,4.18,4.18,0,0,0-.75-1.45,3.22,3.22,0,0,0-1.26-.93,4.5,4.5,0,0,0-1.78-.33,4,4,0,0,0-2,.47,3.69,3.69,0,0,0-1.37,1.29h0Z"/>
  <g>
    <circle class="cls-2" cx="12" cy="12" r="10"/>
    <polygon class="cls-3" points="12 17.27 14.6 12.75 15.68 15.81 14.81 15.81 14.81 17.16 20 17.16 20 15.81 19.01 15.81 15.28 6 12 12.04 8.72 6 4.99 15.81 4 15.81 4 17.16 9.19 17.16 9.19 15.81 8.32 15.81 9.4 12.75 12 17.27"/>
  </g>
  <g>
    <circle class="cls-2" cx="36" cy="12" r="10"/>
    <g id="Слой_1" data-name="Слой 1">
      <path id="path4" class="cls-4" d="M41.4,6.14A7.65,7.65,0,0,0,38.68,4.5L36,13.6h0L33.3,4.5a7.65,7.65,0,0,0-2.72,1.64A7.86,7.86,0,0,0,28,12.84a9.3,9.3,0,0,0,2.09,4.8H33.8s-3.19-1.69-4-4.35a6.13,6.13,0,0,1,1.61-6.36c.45-.39,1.1-.48,1.34.35L36,17.54h0s2.34-7.62,3.18-10.28c.25-.83.9-.74,1.34-.35a6.13,6.13,0,0,1,1.61,6.36c-.77,2.66-4,4.35-4,4.35h3.71A9.34,9.34,0,0,0,44,12.84,7.86,7.86,0,0,0,41.4,6.14Z"/>
    </g>
  </g>
  <g>
    <circle class="cls-2" cx="62" cy="12" r="10"/>
    <polygon class="cls-5" points="64.46 9.06 61.99 11.53 59.52 9.06 53.81 9.06 53.81 14.99 59.49 14.99 59.49 14.3 61.99 16.79 64.48 14.3 64.48 14.99 70.17 14.99 70.17 9.06 64.46 9.06"/>
  </g>
</svg>
